<svg id="svg" version="1.1" xmlns="http://www.w3.org/2000/svg" xmlns:xlink="http://www.w3.org/1999/xlink" width="400" height="400" viewBox="0, 0, 400,400"><g id="svgg"><path id="path0" d="M194.606 0.275 C 194.169 0.396,193.539 0.790,193.206 1.150 C 192.873 1.511,192.117 2.053,191.526 2.356 C 190.936 2.659,190.239 3.423,189.978 4.053 C 189.717 4.684,189.345 5.200,189.151 5.200 C 188.958 5.200,188.800 5.560,188.800 6.000 C 188.800 6.440,188.620 6.800,188.400 6.800 C 188.180 6.800,188.000 7.239,188.000 7.776 C 188.000 8.313,187.820 8.864,187.600 9.000 C 187.375 9.139,187.200 11.063,187.200 13.400 C 187.200 15.737,187.025 17.661,186.800 17.800 C 186.580 17.936,186.400 18.836,186.400 19.800 C 186.400 20.764,186.220 21.664,186.000 21.800 C 185.780 21.936,185.600 22.667,185.600 23.424 C 185.600 24.181,185.420 24.800,185.200 24.800 C 184.980 24.800,184.800 25.325,184.800 25.967 C 184.800 26.608,184.664 27.193,184.498 27.267 C 184.332 27.340,183.568 28.660,182.800 30.200 C 182.032 31.740,181.268 33.060,181.102 33.133 C 180.936 33.207,180.800 33.530,180.800 33.851 C 180.800 34.172,180.350 34.920,179.800 35.513 C 179.250 36.107,178.800 36.790,178.800 37.032 C 178.800 37.274,177.376 38.896,175.636 40.636 C 172.163 44.109,171.200 44.963,171.200 44.574 C 171.200 44.433,170.610 44.831,169.889 45.459 C 169.168 46.086,167.863 46.960,166.989 47.400 C 166.115 47.840,165.340 48.335,165.267 48.500 C 165.193 48.665,164.980 48.800,164.793 48.800 C 164.340 48.800,160.237 51.318,160.067 51.700 C 159.993 51.865,159.588 52.000,159.167 52.000 C 158.745 52.000,158.400 52.180,158.400 52.400 C 158.400 52.620,158.029 52.800,157.576 52.800 C 157.123 52.800,156.864 52.980,157.000 53.200 C 157.136 53.420,156.967 53.600,156.624 53.600 C 156.281 53.600,156.000 53.780,156.000 54.000 C 156.000 54.220,155.640 54.400,155.200 54.400 C 154.760 54.400,154.400 54.580,154.400 54.800 C 154.400 55.020,154.164 55.200,153.875 55.200 C 153.587 55.200,152.964 55.560,152.492 56.000 C 152.020 56.440,151.435 56.800,151.193 56.800 C 150.951 56.800,150.864 56.980,151.000 57.200 C 151.136 57.420,150.877 57.600,150.424 57.600 C 149.971 57.600,149.600 57.780,149.600 58.000 C 149.600 58.220,149.319 58.400,148.976 58.400 C 148.633 58.400,148.444 58.547,148.555 58.727 C 148.666 58.907,147.946 59.388,146.955 59.797 C 145.964 60.205,144.977 60.868,144.763 61.270 C 144.548 61.671,144.153 62.001,143.886 62.002 C 143.619 62.003,142.855 62.498,142.188 63.102 C 141.522 63.706,140.723 64.256,140.414 64.325 C 140.104 64.394,139.569 64.762,139.225 65.144 C 138.881 65.526,137.970 66.271,137.200 66.800 C 136.430 67.329,135.710 67.860,135.600 67.981 C 135.490 68.101,134.410 69.007,133.200 69.992 C 131.990 70.978,130.940 71.923,130.867 72.092 C 130.793 72.262,130.570 72.400,130.371 72.400 C 129.983 72.400,128.589 73.465,127.851 74.326 C 126.664 75.711,125.045 77.200,124.727 77.200 C 124.532 77.200,123.839 77.746,123.187 78.414 C 122.534 79.081,122.000 79.542,122.000 79.436 C 122.000 79.165,110.748 90.539,107.400 94.195 C 105.860 95.877,103.655 98.239,102.500 99.444 C 101.345 100.649,100.400 101.821,100.400 102.049 C 100.400 102.277,99.665 103.169,98.767 104.031 C 97.869 104.894,97.284 105.605,97.467 105.612 C 97.650 105.619,97.485 105.808,97.100 106.032 C 96.715 106.256,96.400 106.612,96.400 106.824 C 96.400 107.035,95.860 107.772,95.200 108.463 C 94.540 109.154,94.000 109.859,94.000 110.031 C 94.000 110.202,93.766 110.581,93.481 110.871 C 93.196 111.162,92.351 112.300,91.604 113.400 C 90.858 114.500,90.101 115.460,89.923 115.533 C 89.745 115.607,89.600 115.839,89.600 116.050 C 89.600 116.261,89.240 116.820,88.800 117.292 C 88.360 117.764,88.000 118.387,88.000 118.675 C 88.000 118.964,87.862 119.200,87.694 119.200 C 87.526 119.200,86.944 119.920,86.400 120.800 C 85.856 121.680,85.274 122.400,85.106 122.400 C 84.938 122.400,84.800 122.636,84.800 122.925 C 84.800 123.213,84.440 123.836,84.000 124.308 C 83.560 124.780,83.200 125.378,83.200 125.636 C 83.200 125.895,82.828 126.429,82.374 126.823 C 81.919 127.217,81.599 127.598,81.662 127.670 C 81.725 127.741,81.221 128.610,80.543 129.600 C 79.865 130.590,79.190 131.784,79.043 132.252 C 78.896 132.721,78.422 133.514,77.988 134.014 C 77.555 134.513,77.200 135.255,77.200 135.661 C 77.200 136.068,77.020 136.400,76.800 136.400 C 76.580 136.400,76.400 136.760,76.400 137.200 C 76.400 137.640,76.220 138.000,76.000 138.000 C 75.780 138.000,75.600 138.360,75.600 138.800 C 75.600 139.240,75.420 139.600,75.200 139.600 C 74.980 139.600,74.800 139.836,74.800 140.125 C 74.800 140.413,74.440 141.036,74.000 141.508 C 73.560 141.980,73.200 142.644,73.200 142.983 C 73.200 143.322,73.020 143.600,72.800 143.600 C 72.580 143.600,72.400 143.949,72.400 144.376 C 72.400 144.803,72.220 145.264,72.000 145.400 C 71.780 145.536,71.600 146.027,71.600 146.490 C 71.600 146.954,71.484 147.217,71.341 147.075 C 71.012 146.745,69.200 150.293,69.200 151.268 C 69.200 151.671,69.020 152.000,68.800 152.000 C 68.580 152.000,68.400 152.253,68.400 152.562 C 68.400 153.079,66.862 156.338,66.400 156.800 C 66.290 156.910,66.149 157.270,66.088 157.600 C 65.986 158.145,64.852 160.748,63.956 162.495 C 63.760 162.877,63.600 163.552,63.600 163.995 C 63.600 164.438,63.420 164.800,63.200 164.800 C 62.980 164.800,62.800 165.124,62.800 165.520 C 62.800 165.916,62.651 166.411,62.470 166.620 C 62.288 166.829,61.895 167.810,61.598 168.800 C 61.300 169.790,60.929 170.780,60.773 171.000 C 60.618 171.220,60.358 172.203,60.196 173.185 C 59.905 174.946,59.773 175.334,58.862 177.095 C 58.608 177.587,58.400 178.442,58.400 178.995 C 58.400 179.548,58.220 180.000,58.000 180.000 C 57.780 180.000,57.600 180.641,57.600 181.424 C 57.600 182.271,57.438 182.747,57.200 182.600 C 56.958 182.450,56.800 183.004,56.800 184.000 C 56.800 184.906,56.657 185.559,56.483 185.451 C 56.309 185.344,56.123 185.825,56.069 186.521 C 56.016 187.217,55.799 187.961,55.587 188.173 C 55.374 188.386,55.200 189.154,55.200 189.880 C 55.200 190.606,55.020 191.200,54.800 191.200 C 54.580 191.200,54.400 191.819,54.400 192.576 C 54.400 193.333,54.239 194.052,54.042 194.174 C 53.845 194.295,53.571 195.161,53.433 196.097 C 53.294 197.034,53.077 198.520,52.949 199.400 C 52.822 200.280,52.556 201.171,52.359 201.380 C 52.162 201.589,52.000 202.534,52.000 203.480 C 52.000 204.426,51.820 205.200,51.600 205.200 C 51.380 205.200,51.200 206.179,51.200 207.376 C 51.200 208.573,51.020 209.664,50.800 209.800 C 50.580 209.936,50.400 211.027,50.400 212.224 C 50.400 213.421,50.248 214.400,50.063 214.400 C 49.878 214.400,49.687 215.615,49.640 217.100 C 49.593 218.585,49.384 219.971,49.177 220.180 C 48.970 220.389,48.800 222.108,48.800 224.000 C 48.800 225.892,48.632 227.611,48.426 227.820 C 47.369 228.896,47.341 259.255,48.396 260.600 C 48.568 260.820,48.840 261.810,49.000 262.800 C 49.160 263.790,49.431 264.780,49.602 265.000 C 49.774 265.220,50.010 266.210,50.128 267.200 C 50.639 271.504,53.696 282.206,55.783 287.000 C 56.070 287.660,56.617 288.920,56.998 289.800 C 64.013 305.988,75.504 320.364,90.313 331.477 C 106.725 343.792,129.399 351.600,148.753 351.600 C 163.406 351.600,176.305 356.381,184.796 364.959 C 185.987 366.163,187.105 367.059,187.281 366.950 C 187.682 366.702,187.695 297.561,187.294 296.958 C 187.132 296.714,186.280 296.388,185.400 296.232 C 178.622 295.029,174.413 287.407,176.669 280.419 C 177.296 278.480,177.295 278.225,176.667 276.473 C 175.817 274.099,175.814 271.068,176.661 268.446 C 177.275 266.544,177.275 266.256,176.661 264.354 C 176.297 263.229,176.000 261.449,176.000 260.400 C 176.000 259.351,176.297 257.571,176.661 256.446 C 177.275 254.544,177.275 254.256,176.661 252.354 C 175.820 249.752,175.818 246.675,176.656 244.217 C 177.264 242.433,177.264 242.140,176.656 240.211 C 176.295 239.066,176.000 237.233,176.000 236.136 C 176.000 235.040,176.295 233.276,176.656 232.217 C 177.264 230.433,177.264 230.140,176.656 228.211 C 175.823 225.569,175.821 222.647,176.649 220.081 C 177.249 218.225,177.249 217.923,176.649 216.164 C 175.815 213.716,175.823 210.640,176.669 208.019 C 177.296 206.080,177.295 205.825,176.667 204.073 C 175.817 201.699,175.814 198.668,176.661 196.046 C 177.275 194.144,177.275 193.856,176.661 191.954 C 175.812 189.326,175.817 186.300,176.674 183.909 C 177.310 182.133,177.311 181.887,176.676 179.874 C 175.822 177.165,175.815 174.286,176.656 171.817 C 177.264 170.033,177.264 169.740,176.656 167.811 C 174.406 160.674,178.433 153.603,185.663 151.993 L 187.926 151.489 188.189 149.733 C 190.188 136.401,209.350 136.448,212.254 149.792 C 212.584 151.312,212.687 151.399,214.512 151.704 C 221.654 152.896,226.442 161.570,223.607 168.184 C 223.026 169.540,222.919 170.242,223.207 170.817 C 223.423 171.248,223.780 171.958,224.000 172.395 C 224.866 174.114,224.316 179.561,223.083 181.484 C 222.913 181.750,222.959 182.335,223.186 182.784 C 223.414 183.233,223.780 183.958,224.000 184.395 C 224.220 184.832,224.400 186.454,224.400 188.000 C 224.400 189.546,224.220 191.168,224.000 191.605 C 223.780 192.042,223.414 192.767,223.186 193.216 C 222.959 193.665,222.913 194.250,223.083 194.516 C 224.316 196.439,224.866 201.886,224.000 203.605 C 223.780 204.042,223.414 204.767,223.186 205.216 C 222.959 205.665,222.913 206.250,223.083 206.516 C 224.283 208.386,224.872 213.883,224.047 215.505 C 222.881 217.796,222.666 218.473,223.021 218.726 C 224.180 219.554,224.910 225.807,224.047 227.505 C 222.829 229.899,222.731 230.303,223.162 231.145 C 223.403 231.615,223.780 232.358,224.000 232.795 C 224.903 234.588,224.215 240.821,223.021 241.674 C 222.666 241.927,222.881 242.604,224.047 244.895 C 224.872 246.517,224.283 252.014,223.083 253.884 C 222.913 254.150,222.959 254.735,223.186 255.184 C 223.414 255.633,223.780 256.358,224.000 256.795 C 224.870 258.522,224.316 263.960,223.073 265.900 C 222.897 266.175,222.897 266.625,223.073 266.900 C 224.316 268.840,224.870 274.278,224.000 276.005 C 223.780 276.442,223.414 277.167,223.186 277.616 C 222.959 278.065,222.913 278.650,223.083 278.916 C 227.103 285.183,222.494 294.792,214.600 296.602 L 212.600 297.060 212.497 331.430 C 212.440 350.334,212.489 366.050,212.605 366.355 C 212.753 366.742,213.580 366.195,215.329 364.555 C 216.710 363.260,218.195 361.922,218.629 361.582 C 220.397 360.197,223.169 358.400,223.539 358.400 C 223.756 358.400,223.993 358.259,224.067 358.086 C 224.268 357.613,229.857 354.967,232.744 353.979 C 237.408 352.381,239.736 352.012,249.000 351.399 C 271.973 349.879,287.204 342.156,301.816 324.619 C 308.349 316.779,318.800 298.842,318.800 295.470 C 318.800 295.189,318.952 294.789,319.138 294.580 C 319.664 293.988,322.628 284.660,323.771 280.000 C 328.365 261.262,328.725 236.881,324.822 208.800 C 324.074 203.414,323.843 201.974,322.822 196.300 C 321.911 191.237,320.530 185.033,318.951 178.905 C 316.969 171.208,316.516 169.590,315.004 164.800 C 312.779 157.750,307.676 144.053,305.333 138.839 C 289.021 102.544,269.117 76.490,240.100 53.451 C 237.405 51.311,235.200 49.389,235.200 49.180 C 235.200 48.971,234.885 48.797,234.500 48.794 C 233.971 48.789,233.929 48.706,234.327 48.454 C 234.710 48.211,234.518 47.980,233.627 47.611 C 232.952 47.332,232.400 46.934,232.400 46.728 C 232.400 46.522,232.243 46.450,232.052 46.568 C 231.860 46.687,231.283 46.419,230.770 45.974 C 230.256 45.528,229.198 44.771,228.418 44.291 C 227.029 43.435,224.149 40.800,224.604 40.800 C 224.730 40.800,224.151 40.125,223.317 39.300 C 222.483 38.475,221.572 37.440,221.294 37.000 C 219.817 34.663,219.207 33.754,218.824 33.317 C 218.591 33.051,218.400 32.546,218.400 32.193 C 218.400 31.841,218.220 31.664,218.000 31.800 C 217.780 31.936,217.600 31.784,217.600 31.461 C 217.600 30.778,215.940 27.462,215.500 27.267 C 215.335 27.193,215.200 26.608,215.200 25.967 C 215.200 25.325,215.020 24.800,214.800 24.800 C 214.580 24.800,214.400 24.181,214.400 23.424 C 214.400 22.667,214.220 21.936,214.000 21.800 C 213.780 21.664,213.600 20.764,213.600 19.800 C 213.600 18.836,213.420 17.936,213.200 17.800 C 212.975 17.661,212.800 15.729,212.800 13.376 C 212.800 10.859,212.641 9.200,212.400 9.200 C 212.180 9.200,212.000 8.660,212.000 8.000 C 212.000 7.340,211.820 6.800,211.600 6.800 C 211.380 6.800,211.200 6.480,211.200 6.088 C 211.200 5.697,210.840 5.117,210.400 4.800 C 209.960 4.483,209.600 4.089,209.600 3.925 C 209.600 3.486,207.290 1.200,206.847 1.200 C 206.638 1.200,206.392 0.975,206.300 0.700 C 206.127 0.179,196.251 -0.180,194.606 0.275 " stroke="none" fill="#fcfbe3" fill-rule="evenodd"></path><path id="path1" d="M200.000 154.767 L 200.000 169.533 198.900 169.935 C 198.044 170.248,197.977 170.342,198.600 170.362 C 199.040 170.376,199.644 170.233,199.942 170.044 C 200.802 169.499,203.038 170.395,204.447 171.848 C 208.170 175.690,204.438 183.097,199.522 181.624 C 198.642 181.360,197.821 181.246,197.697 181.369 C 197.573 181.493,198.041 181.708,198.736 181.847 L 200.000 182.100 200.000 187.863 C 200.000 193.460,199.974 193.637,199.100 194.006 C 198.390 194.307,198.508 194.338,199.661 194.156 C 204.057 193.462,207.423 198.606,205.299 202.772 C 203.328 206.637,197.856 206.900,195.374 203.248 C 194.838 202.459,194.400 201.998,194.400 202.222 C 194.400 203.121,196.694 205.270,198.200 205.781 L 199.800 206.325 199.910 212.110 L 200.021 217.896 198.747 218.151 C 198.046 218.291,197.573 218.507,197.697 218.631 C 197.821 218.754,198.647 218.638,199.532 218.373 C 206.010 216.432,208.448 227.142,202.133 229.799 C 196.822 232.033,191.994 224.435,196.000 220.145 C 197.046 219.025,197.155 218.799,196.433 219.250 C 192.404 221.766,193.710 228.642,198.489 230.074 L 200.000 230.527 200.000 236.230 C 200.000 240.418,199.867 241.987,199.500 242.135 C 199.225 242.246,199.594 242.351,200.320 242.368 C 207.650 242.544,207.841 254.133,200.513 254.133 C 199.277 254.133,198.929 254.241,199.369 254.487 C 199.898 254.783,200.000 255.771,200.000 260.620 L 200.000 266.400 199.059 266.400 C 196.630 266.400,193.960 269.701,194.050 272.594 C 194.099 274.162,194.107 274.152,194.398 272.165 C 195.290 266.085,202.489 264.381,205.259 269.594 C 207.507 273.824,204.433 278.685,199.800 278.226 C 198.574 278.105,198.187 278.146,198.800 278.332 L 199.800 278.636 199.907 287.418 L 200.013 296.200 205.670 296.078 C 209.641 295.993,211.411 296.094,211.612 296.419 C 211.824 296.762,212.113 296.767,212.723 296.441 C 213.176 296.199,214.071 296.000,214.712 296.000 C 220.445 296.000,225.372 287.247,223.225 280.874 C 222.458 278.599,222.458 278.549,223.225 276.225 C 224.210 273.238,224.204 271.374,223.197 268.685 L 222.395 266.540 223.197 264.207 C 224.202 261.287,224.208 259.556,223.225 256.575 C 222.458 254.251,222.458 254.201,223.225 251.926 C 223.651 250.660,224.000 249.017,224.000 248.275 C 224.000 247.532,223.651 245.867,223.225 244.575 C 222.458 242.251,222.458 242.201,223.225 239.926 C 224.200 237.031,224.200 235.541,223.222 232.562 C 222.451 230.215,222.451 230.170,223.222 227.834 C 224.200 224.870,224.200 223.370,223.225 220.474 C 222.458 218.199,222.458 218.149,223.225 215.825 C 223.651 214.533,224.000 212.868,224.000 212.125 C 224.000 211.383,223.651 209.740,223.225 208.474 C 222.458 206.199,222.458 206.149,223.225 203.825 C 224.208 200.844,224.202 199.113,223.197 196.193 L 222.395 193.860 223.197 191.715 C 224.204 189.026,224.210 187.162,223.225 184.175 C 222.458 181.851,222.458 181.801,223.225 179.526 C 224.200 176.631,224.200 175.130,223.224 172.172 C 222.450 169.827,222.451 169.811,223.274 167.262 C 225.417 160.630,221.084 153.315,214.377 152.243 C 212.144 151.886,211.600 151.405,211.600 149.789 C 211.600 145.703,205.660 140.000,201.404 140.000 L 200.000 140.000 200.000 154.767 M195.612 171.787 C 193.201 174.275,193.631 178.976,196.433 180.763 C 197.188 181.244,197.115 181.081,196.105 180.019 C 193.780 177.576,193.814 173.885,196.180 171.700 C 196.955 170.985,197.446 170.400,197.273 170.400 C 197.099 170.400,196.352 171.024,195.612 171.787 M195.813 195.813 C 195.036 196.591,194.401 197.446,194.403 197.713 C 194.404 197.981,194.745 197.685,195.159 197.057 C 195.574 196.428,196.428 195.574,197.057 195.159 C 197.685 194.745,197.981 194.404,197.713 194.403 C 197.446 194.401,196.591 195.036,195.813 195.813 M194.109 200.000 C 194.109 200.990,194.187 201.395,194.282 200.900 C 194.378 200.405,194.378 199.595,194.282 199.100 C 194.187 198.605,194.109 199.010,194.109 200.000 M197.600 242.682 C 193.854 244.052,192.811 250.391,195.921 252.882 C 196.277 253.167,196.138 252.786,195.612 252.037 C 193.435 248.934,194.384 244.706,197.614 243.119 C 198.921 242.477,198.912 242.203,197.600 242.682 M351.200 261.774 C 351.200 262.310,351.003 263.255,350.761 263.874 C 350.520 264.493,350.167 265.900,349.978 267.000 C 343.481 304.657,313.914 337.395,277.200 347.584 C 271.258 349.233,270.501 349.405,265.000 350.353 C 263.680 350.581,262.060 350.861,261.400 350.976 C 260.740 351.091,255.794 351.463,250.410 351.804 C 245.025 352.144,239.895 352.611,239.010 352.843 C 238.124 353.074,236.680 353.450,235.800 353.678 C 222.002 357.255,209.428 368.165,204.198 381.100 C 203.598 382.585,202.948 384.160,202.754 384.600 C 202.128 386.018,200.812 391.760,200.806 393.100 C 200.799 394.688,200.221 394.787,199.629 393.300 C 199.234 392.308,199.213 392.298,199.410 393.200 C 199.530 393.750,199.740 395.531,199.876 397.158 L 200.124 400.115 210.510 399.904 C 216.222 399.787,221.009 399.536,221.148 399.346 C 221.431 398.957,221.530 398.943,224.624 398.860 C 225.991 398.823,226.752 398.646,226.600 398.400 C 226.448 398.153,227.129 398.000,228.376 398.000 C 229.489 398.000,230.400 397.857,230.400 397.682 C 230.400 397.507,231.066 397.319,231.881 397.264 C 232.695 397.209,233.630 396.947,233.957 396.682 C 234.427 396.302,234.490 396.306,234.253 396.700 C 234.088 396.975,234.128 397.200,234.343 397.200 C 234.558 397.200,234.793 397.028,234.867 396.818 C 234.940 396.607,235.675 396.390,236.500 396.336 C 237.325 396.281,238.000 396.114,238.000 395.964 C 238.000 395.704,239.020 395.435,241.900 394.937 C 242.615 394.814,243.200 394.552,243.200 394.356 C 243.200 394.160,243.931 394.000,244.824 394.000 C 245.804 394.000,246.349 393.842,246.200 393.600 C 246.053 393.363,246.518 393.200,247.343 393.200 C 248.108 393.200,248.793 393.022,248.867 392.803 C 248.940 392.585,249.495 392.366,250.100 392.316 C 250.705 392.266,251.200 392.085,251.200 391.913 C 251.200 391.741,251.661 391.600,252.224 391.600 C 252.787 391.600,253.142 391.429,253.013 391.221 C 252.882 391.009,253.171 390.917,253.667 391.013 C 254.155 391.107,254.864 390.904,255.241 390.563 C 255.619 390.221,256.529 389.847,257.264 389.731 C 257.999 389.616,258.690 389.400,258.800 389.252 C 259.045 388.923,261.249 387.879,261.800 387.831 C 262.020 387.812,262.581 387.578,263.047 387.312 C 263.513 387.046,264.008 386.942,264.147 387.081 C 264.286 387.220,264.400 387.123,264.400 386.867 C 264.400 386.610,264.771 386.400,265.224 386.400 C 265.677 386.400,265.936 386.220,265.800 386.000 C 265.581 385.645,266.422 385.405,267.330 385.563 C 267.511 385.594,267.545 385.435,267.406 385.210 C 267.172 384.831,268.058 384.596,269.000 384.786 C 269.220 384.830,269.268 384.734,269.106 384.573 C 268.762 384.228,270.592 383.200,271.550 383.200 C 271.911 383.200,272.432 382.840,272.707 382.400 C 272.982 381.960,273.543 381.600,273.954 381.600 C 274.366 381.600,274.916 381.342,275.178 381.026 C 275.873 380.189,278.670 378.808,279.025 379.127 C 279.192 379.277,279.199 379.175,279.041 378.900 C 278.863 378.591,278.991 378.400,279.376 378.400 C 279.719 378.400,280.000 378.264,280.000 378.098 C 280.000 377.931,280.585 377.541,281.300 377.230 C 282.015 376.919,282.690 376.548,282.800 376.406 C 283.156 375.946,286.800 373.554,286.800 373.781 C 286.800 373.901,287.160 373.640,287.600 373.200 C 288.040 372.760,288.670 372.400,289.000 372.400 C 289.330 372.400,289.600 372.100,289.600 371.733 C 289.600 371.367,289.705 371.172,289.834 371.300 C 290.073 371.539,290.991 370.885,292.608 369.324 C 293.107 368.843,293.624 368.558,293.758 368.691 C 293.891 368.824,294.000 368.693,294.000 368.400 C 294.000 368.107,294.101 367.968,294.225 368.092 C 294.349 368.216,295.159 367.602,296.025 366.727 C 296.891 365.852,297.605 365.286,297.612 365.468 C 297.619 365.651,297.808 365.485,298.032 365.100 C 298.256 364.715,298.606 364.400,298.808 364.400 C 299.011 364.400,300.037 363.545,301.088 362.500 C 302.140 361.455,303.395 360.342,303.879 360.027 C 304.362 359.712,304.666 359.307,304.555 359.127 C 304.444 358.947,304.617 358.800,304.939 358.800 C 305.262 358.800,306.114 358.089,306.833 357.220 C 307.551 356.350,308.288 355.731,308.470 355.843 C 308.651 355.955,308.800 355.787,308.800 355.470 C 308.800 355.152,309.256 354.593,309.813 354.228 C 310.370 353.863,310.727 353.406,310.607 353.211 C 310.487 353.017,310.751 352.743,311.194 352.602 C 311.637 352.461,312.000 352.186,312.000 351.990 C 312.000 351.794,312.720 350.877,313.600 349.952 C 314.480 349.027,315.200 348.108,315.200 347.911 C 315.200 347.714,315.380 347.664,315.600 347.800 C 315.820 347.936,316.000 347.832,316.000 347.569 C 316.000 347.307,316.405 346.697,316.900 346.214 C 318.223 344.925,319.189 343.663,319.681 342.581 C 319.921 342.055,320.271 341.720,320.458 341.836 C 320.646 341.952,320.800 341.792,320.800 341.480 C 320.800 341.167,321.239 340.582,321.776 340.179 C 322.313 339.776,322.662 339.301,322.552 339.123 C 322.443 338.945,322.554 338.800,322.800 338.800 C 323.046 338.800,323.136 338.620,323.000 338.400 C 322.864 338.180,322.943 338.000,323.176 338.000 C 323.409 338.000,323.600 337.730,323.600 337.400 C 323.600 337.070,323.825 336.845,324.100 336.900 C 324.375 336.955,324.555 336.775,324.500 336.500 C 324.445 336.225,324.580 336.000,324.800 336.000 C 325.020 336.000,325.200 335.732,325.200 335.403 C 325.200 335.075,325.560 334.582,326.000 334.307 C 326.440 334.032,326.800 333.513,326.800 333.153 C 326.800 332.793,327.063 332.280,327.385 332.013 C 327.706 331.746,328.084 331.165,328.225 330.721 C 328.466 329.963,329.146 328.999,330.300 327.784 C 330.575 327.494,330.800 327.100,330.800 326.908 C 330.800 326.306,331.786 324.406,332.100 324.403 C 332.265 324.401,332.400 324.119,332.400 323.776 C 332.400 323.433,332.560 323.251,332.755 323.372 C 333.055 323.558,333.554 322.609,333.746 321.485 C 333.776 321.312,333.980 321.042,334.200 320.885 C 334.420 320.728,334.658 320.330,334.730 320.000 C 334.801 319.670,335.026 319.340,335.230 319.267 C 335.433 319.193,335.600 318.788,335.600 318.367 C 335.600 317.945,335.791 317.600,336.024 317.600 C 336.257 317.600,336.345 317.435,336.220 317.232 C 336.095 317.030,336.264 316.593,336.596 316.261 C 336.928 315.929,337.200 315.374,337.200 315.029 C 337.200 314.683,337.380 314.400,337.600 314.400 C 337.820 314.400,338.000 314.040,338.000 313.600 C 338.000 313.160,338.180 312.800,338.400 312.800 C 338.620 312.800,338.800 312.440,338.800 312.000 C 338.800 311.560,338.980 311.200,339.200 311.200 C 339.420 311.200,339.600 310.660,339.600 310.000 C 339.600 309.340,339.791 308.800,340.024 308.800 C 340.257 308.800,340.349 308.640,340.228 308.445 C 340.107 308.250,340.285 307.861,340.623 307.581 C 340.960 307.301,341.144 306.831,341.031 306.536 C 340.918 306.241,340.999 306.000,341.213 306.000 C 341.426 306.000,341.600 305.548,341.600 304.995 C 341.600 304.026,341.726 303.662,342.738 301.705 C 342.992 301.213,343.200 300.438,343.200 299.982 C 343.200 299.526,343.380 299.264,343.600 299.400 C 343.833 299.544,344.000 299.145,344.000 298.447 C 344.000 297.787,344.180 297.136,344.400 297.000 C 344.620 296.864,344.800 296.313,344.800 295.776 C 344.800 295.239,344.980 294.800,345.200 294.800 C 345.420 294.800,345.600 294.159,345.600 293.376 C 345.600 292.529,345.762 292.053,346.000 292.200 C 346.238 292.347,346.400 291.879,346.400 291.047 C 346.400 290.277,346.580 289.536,346.800 289.400 C 347.020 289.264,347.200 288.749,347.200 288.256 C 347.200 287.763,347.362 287.189,347.559 286.980 C 347.756 286.771,348.026 285.835,348.159 284.900 C 348.292 283.965,348.508 282.435,348.641 281.500 C 348.774 280.565,349.044 279.629,349.241 279.420 C 349.438 279.211,349.603 278.131,349.606 277.020 C 349.611 275.568,349.721 275.169,350.000 275.600 C 350.276 276.027,350.390 275.556,350.394 273.967 C 350.397 272.738,350.533 271.601,350.695 271.438 C 351.047 271.086,351.061 270.961,351.139 267.476 C 351.173 265.978,351.352 264.847,351.539 264.962 C 351.725 265.077,351.910 264.188,351.949 262.986 C 351.991 261.713,351.849 260.800,351.610 260.800 C 351.385 260.800,351.200 261.238,351.200 261.774 M194.403 274.646 C 194.399 275.321,195.949 277.150,196.931 277.629 C 197.761 278.035,197.759 278.020,196.885 277.314 C 196.382 276.907,195.618 276.040,195.188 275.387 C 194.757 274.734,194.404 274.401,194.403 274.646 " stroke="none" fill="#fbeb54" fill-rule="evenodd"></path><path id="path2" d="M188.500 296.673 C 188.105 296.826,188.000 304.338,188.000 332.374 L 188.000 367.881 189.930 370.440 C 194.937 377.082,198.123 384.378,199.390 392.100 C 199.526 392.925,199.800 393.600,200.000 393.600 C 200.200 393.600,200.470 392.925,200.600 392.100 C 201.744 384.820,205.452 376.517,210.528 369.867 L 212.000 367.939 212.000 332.412 C 212.000 301.187,211.927 296.858,211.399 296.655 C 210.679 296.379,189.216 296.395,188.500 296.673 " stroke="none" fill="#6dac44" fill-rule="evenodd"></path><path id="path3" d="M235.200 49.180 C 235.200 49.389,237.405 51.311,240.100 53.451 C 269.117 76.490,289.021 102.544,305.333 138.839 C 308.416 145.699,314.575 162.723,316.461 169.600 C 316.672 170.370,317.000 171.540,317.189 172.200 C 319.040 178.655,321.675 189.927,322.822 196.300 C 323.843 201.974,324.074 203.414,324.822 208.800 C 328.725 236.881,328.365 261.262,323.771 280.000 C 322.628 284.660,319.664 293.988,319.138 294.580 C 318.952 294.789,318.800 295.189,318.800 295.470 C 318.800 298.842,308.349 316.779,301.816 324.619 C 287.204 342.156,271.973 349.879,249.000 351.399 C 239.736 352.012,237.408 352.381,232.744 353.979 C 229.857 354.967,224.268 357.613,224.067 358.086 C 223.993 358.259,223.756 358.400,223.539 358.400 C 223.169 358.400,220.397 360.197,218.629 361.582 C 218.195 361.922,216.710 363.260,215.329 364.555 C 213.580 366.195,212.753 366.742,212.605 366.355 C 212.489 366.050,212.440 350.334,212.497 331.430 L 212.600 297.060 214.600 296.602 C 222.494 294.792,227.103 285.183,223.083 278.916 C 222.913 278.650,222.959 278.065,223.186 277.616 C 223.414 277.167,223.780 276.442,224.000 276.005 C 224.870 274.278,224.316 268.840,223.073 266.900 C 222.897 266.625,222.897 266.175,223.073 265.900 C 224.273 264.027,224.874 258.564,224.062 256.895 C 223.877 256.513,223.511 255.788,223.249 255.284 C 222.987 254.780,222.913 254.150,223.083 253.884 C 224.283 252.014,224.872 246.517,224.047 244.895 C 222.881 242.604,222.666 241.927,223.021 241.674 C 224.180 240.846,224.910 234.593,224.047 232.895 C 222.829 230.501,222.731 230.097,223.162 229.255 C 223.403 228.785,223.780 228.042,224.000 227.605 C 224.903 225.812,224.215 219.579,223.021 218.726 C 222.666 218.473,222.881 217.796,224.047 215.505 C 224.872 213.883,224.283 208.386,223.083 206.516 C 222.913 206.250,222.959 205.665,223.186 205.216 C 223.414 204.767,223.780 204.042,224.000 203.605 C 224.866 201.886,224.316 196.439,223.083 194.516 C 222.913 194.250,222.987 193.620,223.249 193.116 C 223.511 192.612,223.877 191.887,224.062 191.505 C 224.532 190.540,224.486 185.360,224.000 184.395 C 223.780 183.958,223.414 183.233,223.186 182.784 C 222.959 182.335,222.913 181.750,223.083 181.484 C 224.274 179.628,224.870 174.156,224.062 172.495 C 223.877 172.113,223.520 171.403,223.270 170.917 C 222.904 170.208,222.971 169.668,223.607 168.184 C 226.442 161.570,221.654 152.896,214.512 151.704 C 212.687 151.399,212.584 151.312,212.254 149.792 C 209.350 136.448,190.188 136.401,188.189 149.733 L 187.926 151.489 185.663 151.993 C 178.464 153.596,174.306 160.886,176.656 167.783 C 177.264 169.567,177.264 169.860,176.656 171.789 C 175.816 174.453,175.823 177.168,176.676 179.874 C 177.311 181.887,177.310 182.133,176.674 183.909 C 175.817 186.300,175.812 189.326,176.661 191.954 C 177.275 193.856,177.275 194.144,176.661 196.046 C 175.814 198.668,175.817 201.699,176.667 204.073 C 177.295 205.825,177.296 206.080,176.669 208.019 C 175.823 210.640,175.815 213.716,176.649 216.164 C 177.249 217.923,177.249 218.225,176.649 220.081 C 175.820 222.651,175.822 225.735,176.656 228.183 C 177.264 229.967,177.264 230.260,176.656 232.189 C 175.821 234.838,175.821 237.732,176.656 240.183 C 177.264 241.967,177.264 242.260,176.656 244.189 C 175.820 246.842,175.821 249.755,176.661 252.354 C 177.275 254.256,177.275 254.544,176.661 256.446 C 175.821 259.047,175.821 261.753,176.661 264.354 C 177.275 266.256,177.275 266.544,176.661 268.446 C 175.814 271.068,175.817 274.099,176.667 276.473 C 177.295 278.225,177.296 278.480,176.669 280.419 C 174.413 287.407,178.622 295.029,185.400 296.232 C 186.280 296.388,187.132 296.714,187.294 296.958 C 187.695 297.561,187.682 366.702,187.281 366.950 C 187.105 367.059,185.987 366.163,184.796 364.959 C 176.305 356.381,163.406 351.600,148.753 351.600 C 133.748 351.600,116.731 346.959,101.600 338.740 C 82.443 328.334,65.684 309.964,57.046 289.900 C 56.691 289.075,56.144 287.815,55.830 287.100 C 53.720 282.287,50.646 271.557,50.128 267.200 C 50.010 266.210,49.770 265.220,49.595 265.000 C 49.419 264.780,49.147 263.743,48.991 262.695 C 48.835 261.647,48.577 260.709,48.417 260.610 C 47.982 260.341,47.923 264.424,48.354 264.948 C 48.559 265.197,48.827 266.570,48.950 268.000 C 49.377 272.976,49.676 275.002,50.037 275.380 C 50.237 275.589,50.400 276.613,50.400 277.656 C 50.400 278.699,50.580 279.664,50.800 279.800 C 51.020 279.936,51.200 280.656,51.200 281.400 C 51.200 282.144,51.380 282.864,51.600 283.000 C 51.820 283.136,52.000 283.946,52.000 284.800 C 52.000 285.654,52.180 286.464,52.400 286.600 C 52.620 286.736,52.800 287.366,52.800 288.000 C 52.800 288.634,52.980 289.264,53.200 289.400 C 53.420 289.536,53.600 290.166,53.600 290.800 C 53.600 291.434,53.780 292.064,54.000 292.200 C 54.220 292.336,54.400 292.977,54.400 293.624 C 54.400 294.271,54.580 294.800,54.800 294.800 C 55.020 294.800,55.200 295.239,55.200 295.776 C 55.200 296.313,55.380 296.864,55.600 297.000 C 55.820 297.136,56.000 297.777,56.000 298.424 C 56.000 299.071,56.180 299.600,56.400 299.600 C 56.620 299.600,56.800 299.949,56.800 300.376 C 56.800 300.803,56.980 301.264,57.200 301.400 C 57.420 301.536,57.600 302.087,57.600 302.624 C 57.600 303.161,57.780 303.600,58.000 303.600 C 58.220 303.600,58.400 304.050,58.400 304.600 C 58.400 305.150,58.580 305.600,58.800 305.600 C 59.020 305.600,59.200 305.960,59.200 306.400 C 59.200 306.840,59.356 307.200,59.548 307.200 C 59.739 307.200,59.994 307.811,60.116 308.558 C 60.307 309.737,65.765 321.458,66.375 322.000 C 66.761 322.343,68.038 324.566,68.271 325.300 C 68.393 325.685,68.652 326.000,68.847 326.000 C 69.041 326.000,69.200 326.236,69.200 326.525 C 69.200 326.813,69.560 327.436,70.000 327.908 C 70.440 328.380,70.800 328.962,70.800 329.200 C 70.800 329.438,71.160 330.020,71.600 330.492 C 72.040 330.964,72.400 331.587,72.400 331.875 C 72.400 332.164,72.580 332.400,72.800 332.400 C 73.020 332.400,73.200 332.643,73.200 332.941 C 73.200 333.238,73.740 334.046,74.400 334.737 C 75.060 335.428,75.600 336.225,75.600 336.508 C 75.600 336.791,75.960 337.283,76.400 337.600 C 76.840 337.917,77.200 338.336,77.200 338.531 C 77.200 338.931,80.028 342.623,81.813 344.553 C 82.040 344.799,82.669 345.630,83.209 346.400 C 83.750 347.170,85.274 348.914,86.596 350.276 C 87.918 351.638,90.013 353.798,91.250 355.076 C 94.133 358.054,100.643 364.119,102.200 365.278 C 102.860 365.769,103.670 366.456,104.000 366.805 C 104.330 367.153,105.230 367.871,106.000 368.400 C 106.770 368.929,107.673 369.641,108.006 369.981 C 108.339 370.321,108.898 370.780,109.250 371.000 C 110.709 371.915,112.250 372.989,113.000 373.616 C 113.440 373.983,114.610 374.715,115.600 375.242 C 116.590 375.769,117.691 376.515,118.047 376.900 C 118.403 377.285,118.988 377.600,119.347 377.600 C 119.706 377.600,120.000 377.758,120.000 377.951 C 120.000 378.145,120.540 378.527,121.200 378.800 C 121.860 379.073,122.400 379.455,122.400 379.649 C 122.400 379.842,122.760 380.000,123.200 380.000 C 123.640 380.000,124.000 380.180,124.000 380.400 C 124.000 380.620,124.278 380.800,124.617 380.800 C 124.956 380.800,125.620 381.160,126.092 381.600 C 126.564 382.040,127.187 382.400,127.475 382.400 C 127.764 382.400,128.000 382.580,128.000 382.800 C 128.000 383.020,128.345 383.200,128.767 383.200 C 129.188 383.200,129.593 383.337,129.667 383.504 C 129.792 383.788,136.047 386.937,137.800 387.597 C 138.240 387.763,139.500 388.304,140.600 388.800 C 143.275 390.005,143.829 390.217,146.400 391.014 C 147.610 391.390,148.913 391.855,149.295 392.048 C 149.677 392.242,150.352 392.400,150.795 392.400 C 151.238 392.400,151.600 392.580,151.600 392.800 C 151.600 393.020,152.039 393.200,152.576 393.200 C 153.113 393.200,153.664 393.380,153.800 393.600 C 153.936 393.820,154.667 394.000,155.424 394.000 C 156.181 394.000,156.800 394.160,156.800 394.356 C 156.800 394.552,157.430 394.822,158.200 394.956 C 158.970 395.090,160.232 395.310,161.004 395.444 C 161.776 395.579,162.506 395.849,162.627 396.044 C 162.748 396.240,163.467 396.400,164.224 396.400 C 164.981 396.400,165.600 396.580,165.600 396.800 C 165.600 397.020,166.410 397.200,167.400 397.200 C 168.390 397.200,169.200 397.363,169.200 397.563 C 169.200 397.763,170.190 398.033,171.400 398.163 C 172.610 398.293,174.635 398.508,175.900 398.640 C 177.165 398.771,178.419 399.058,178.686 399.277 C 178.964 399.504,183.633 399.770,189.586 399.898 L 200.000 400.122 200.000 398.327 C 200.000 390.426,195.818 378.725,190.365 371.372 L 188.014 368.200 188.107 332.400 L 188.200 296.600 194.100 296.489 L 200.000 296.379 200.000 287.577 C 200.000 279.540,199.939 278.757,199.300 278.568 C 192.610 276.590,192.409 266.400,199.059 266.400 L 200.000 266.400 200.000 260.591 L 200.000 254.783 198.900 254.342 C 196.514 253.384,195.901 252.985,195.103 251.863 C 192.698 248.486,194.410 243.728,198.500 242.418 L 200.000 241.938 200.000 236.232 L 200.000 230.527 198.489 230.074 C 192.366 228.239,192.676 219.461,198.910 218.132 L 200.021 217.896 199.910 212.110 L 199.800 206.325 198.200 205.781 C 192.635 203.892,192.801 195.776,198.438 194.161 L 199.800 193.771 199.910 187.938 L 200.021 182.104 198.910 181.868 C 192.689 180.542,192.333 171.865,198.424 170.040 L 200.000 169.568 200.000 154.784 L 200.000 140.000 201.404 140.000 C 205.660 140.000,211.600 145.703,211.600 149.789 C 211.600 151.405,212.144 151.886,214.377 152.243 C 221.084 153.315,225.417 160.630,223.274 167.262 C 222.451 169.811,222.450 169.827,223.224 172.172 C 224.200 175.130,224.200 176.631,223.225 179.526 C 222.458 181.801,222.458 181.851,223.225 184.175 C 224.210 187.162,224.204 189.026,223.197 191.715 L 222.395 193.860 223.197 196.193 C 224.202 199.113,224.208 200.844,223.225 203.825 C 222.458 206.149,222.458 206.199,223.225 208.474 C 223.651 209.740,224.000 211.383,224.000 212.125 C 224.000 212.868,223.651 214.533,223.225 215.825 C 222.458 218.149,222.458 218.199,223.225 220.474 C 224.200 223.369,224.200 224.859,223.222 227.838 C 222.451 230.185,222.451 230.230,223.222 232.566 C 224.200 235.530,224.200 237.030,223.225 239.926 C 222.458 242.201,222.458 242.251,223.225 244.575 C 223.651 245.867,224.000 247.532,224.000 248.275 C 224.000 249.017,223.651 250.660,223.225 251.926 C 222.458 254.201,222.458 254.251,223.225 256.575 C 224.208 259.556,224.202 261.287,223.197 264.207 L 222.395 266.540 223.197 268.685 C 224.204 271.374,224.210 273.238,223.225 276.225 C 222.458 278.549,222.458 278.599,223.225 280.874 C 225.393 287.310,220.446 296.000,214.614 296.000 C 211.777 296.000,211.981 293.026,212.096 332.600 L 212.200 368.200 213.600 366.798 C 220.071 360.317,227.791 355.754,235.800 353.678 C 236.680 353.450,238.124 353.074,239.010 352.843 C 239.895 352.611,245.025 352.144,250.410 351.804 C 255.794 351.463,260.740 351.091,261.400 350.976 C 262.060 350.861,263.680 350.581,265.000 350.353 C 270.501 349.405,271.258 349.233,277.200 347.584 C 313.914 337.395,343.481 304.657,349.978 267.000 C 350.167 265.900,350.520 264.493,350.761 263.874 C 351.003 263.255,351.200 262.310,351.200 261.774 C 351.200 261.238,351.359 260.800,351.553 260.800 C 352.008 260.800,352.474 253.964,352.439 247.800 C 352.388 238.713,351.972 228.998,351.599 228.200 C 351.394 227.760,351.133 225.960,351.020 224.200 C 350.575 217.286,350.323 214.985,349.969 214.620 C 349.766 214.411,349.600 213.297,349.600 212.144 C 349.600 210.991,349.420 209.936,349.200 209.800 C 348.980 209.664,348.800 208.674,348.800 207.600 C 348.800 206.526,348.620 205.536,348.400 205.400 C 348.180 205.264,348.000 204.364,348.000 203.400 C 348.000 202.436,347.820 201.536,347.600 201.400 C 347.380 201.264,347.200 200.454,347.200 199.600 C 347.200 198.746,347.020 197.936,346.800 197.800 C 346.580 197.664,346.400 196.843,346.400 195.976 C 346.400 195.109,346.220 194.400,346.000 194.400 C 345.780 194.400,345.600 193.680,345.600 192.800 C 345.600 191.920,345.440 191.200,345.244 191.200 C 345.048 191.200,344.773 190.525,344.632 189.700 C 344.014 186.073,343.892 185.580,343.556 185.373 C 343.360 185.252,343.200 184.634,343.200 184.000 C 343.200 183.366,343.020 182.736,342.800 182.600 C 342.580 182.464,342.400 181.924,342.400 181.400 C 342.400 180.876,342.244 180.351,342.053 180.232 C 341.861 180.114,341.564 179.249,341.392 178.309 C 340.993 176.137,341.026 176.269,340.765 175.800 C 340.642 175.580,340.309 174.590,340.025 173.600 C 339.741 172.610,339.349 171.395,339.154 170.900 C 338.356 168.872,337.888 167.763,337.553 167.105 C 337.359 166.723,337.200 166.136,337.200 165.800 C 337.200 165.464,337.043 164.877,336.850 164.495 C 335.352 161.520,334.800 160.247,334.800 159.762 C 334.800 159.453,334.620 159.200,334.400 159.200 C 334.180 159.200,334.000 158.921,334.000 158.581 C 334.000 158.240,333.640 157.216,333.200 156.306 C 332.760 155.395,332.400 154.414,332.400 154.125 C 332.400 153.836,332.220 153.600,332.000 153.600 C 331.780 153.600,331.600 153.240,331.600 152.800 C 331.600 152.360,331.420 152.000,331.200 152.000 C 330.980 152.000,330.801 151.775,330.802 151.500 C 330.806 150.738,325.937 141.200,325.544 141.200 C 325.355 141.200,325.200 140.927,325.200 140.593 C 325.200 139.871,323.481 136.445,321.992 134.200 C 321.408 133.320,320.677 132.015,320.368 131.300 C 320.058 130.585,319.669 130.000,319.502 130.000 C 319.336 130.000,319.200 129.730,319.200 129.400 C 319.200 129.070,319.020 128.800,318.800 128.800 C 318.580 128.800,318.400 128.564,318.400 128.275 C 318.400 127.987,318.085 127.402,317.700 126.975 C 317.315 126.549,316.745 125.705,316.432 125.100 C 316.120 124.495,315.715 124.000,315.532 124.000 C 315.350 124.000,315.200 123.764,315.200 123.475 C 315.200 123.187,314.885 122.602,314.500 122.175 C 314.115 121.749,313.545 120.905,313.232 120.300 C 312.920 119.695,312.515 119.200,312.332 119.200 C 312.150 119.200,312.000 118.928,312.000 118.596 C 312.000 118.264,311.460 117.428,310.800 116.737 C 310.140 116.046,309.600 115.253,309.600 114.974 C 309.600 114.695,309.462 114.407,309.294 114.333 C 309.126 114.260,308.140 113.030,307.102 111.600 C 306.064 110.170,304.893 108.640,304.500 108.200 C 304.107 107.760,303.345 106.770,302.808 106.000 C 302.271 105.230,301.329 104.123,300.715 103.540 C 300.102 102.956,299.600 102.281,299.600 102.040 C 299.600 101.798,299.420 101.600,299.200 101.600 C 298.980 101.600,298.800 101.408,298.800 101.174 C 298.800 100.940,297.900 99.871,296.800 98.800 C 295.700 97.729,294.800 96.760,294.800 96.647 C 294.800 96.092,280.618 81.681,277.433 79.000 C 276.388 78.120,274.783 76.711,273.866 75.870 C 272.950 75.028,271.570 73.859,270.800 73.271 C 270.030 72.683,268.923 71.707,268.340 71.101 C 267.756 70.496,267.119 70.000,266.924 70.000 C 266.728 70.000,265.772 69.280,264.800 68.400 C 263.828 67.520,262.872 66.800,262.676 66.800 C 262.481 66.800,261.817 66.260,261.200 65.600 C 260.583 64.940,259.915 64.400,259.715 64.400 C 259.515 64.400,259.002 64.082,258.575 63.694 C 258.149 63.305,256.839 62.376,255.663 61.628 C 254.488 60.881,253.318 60.074,253.063 59.835 C 252.809 59.596,252.105 59.145,251.500 58.832 C 250.895 58.520,250.400 58.115,250.400 57.932 C 250.400 57.750,250.164 57.600,249.875 57.600 C 249.587 57.600,249.002 57.285,248.575 56.900 C 248.149 56.515,247.305 55.945,246.700 55.632 C 246.095 55.320,245.600 54.915,245.600 54.732 C 245.600 54.550,245.240 54.400,244.800 54.400 C 244.360 54.400,244.000 54.220,244.000 54.000 C 244.000 53.780,243.730 53.600,243.400 53.600 C 243.070 53.600,242.800 53.420,242.800 53.200 C 242.800 52.980,242.530 52.800,242.200 52.800 C 241.870 52.800,241.600 52.641,241.600 52.447 C 241.600 52.252,241.285 51.987,240.900 51.858 C 240.172 51.612,238.407 50.621,236.650 49.470 C 235.479 48.702,235.200 48.646,235.200 49.180 " stroke="none" fill="#fcf4a4" fill-rule="evenodd"></path><path id="path4" d="M199.942 170.044 C 199.644 170.233,198.992 170.391,198.494 170.394 C 194.824 170.419,193.092 176.901,195.969 179.844 C 199.999 183.966,206.324 181.061,205.891 175.287 C 205.655 172.144,201.879 168.817,199.942 170.044 M198.728 194.392 C 192.003 196.422,193.416 205.648,200.470 205.768 C 206.406 205.869,208.110 197.241,202.664 194.657 C 201.163 193.945,200.384 193.893,198.728 194.392 M198.700 218.550 C 192.884 220.357,193.019 228.032,198.897 229.755 C 205.349 231.646,208.875 222.422,203.013 218.986 C 201.159 217.900,200.882 217.872,198.700 218.550 M197.614 243.119 C 195.714 244.053,194.400 246.116,194.400 248.165 C 194.400 254.424,202.745 256.539,205.396 250.952 C 207.852 245.776,202.720 240.611,197.614 243.119 M198.848 266.861 C 192.317 268.739,193.043 277.271,199.810 278.162 C 205.817 278.953,208.356 270.819,203.200 267.300 C 201.784 266.333,200.969 266.251,198.848 266.861 M202.000 296.266 C 206.298 296.557,211.602 296.576,211.601 296.300 C 211.600 296.135,209.035 296.032,205.900 296.072 C 202.765 296.112,201.010 296.199,202.000 296.266 M209.944 370.700 C 208.793 372.089,208.306 372.800,208.504 372.800 C 208.614 372.800,209.186 372.170,209.773 371.400 C 210.863 369.971,210.995 369.432,209.944 370.700 M207.753 373.700 C 206.376 376.036,206.286 376.235,206.987 375.400 C 207.800 374.432,208.500 373.200,208.238 373.200 C 208.133 373.200,207.915 373.425,207.753 373.700 M285.600 374.400 C 285.050 374.830,284.797 375.186,285.038 375.191 C 285.279 375.196,285.802 374.840,286.200 374.400 C 287.112 373.392,286.888 373.392,285.600 374.400 M201.049 389.415 C 200.912 389.773,200.815 390.366,200.834 390.733 C 200.853 391.100,201.027 390.869,201.221 390.220 C 201.598 388.958,201.465 388.333,201.049 389.415 M200.308 393.183 C 200.031 394.167,200.197 394.737,200.632 394.301 C 200.760 394.173,200.801 393.648,200.724 393.134 L 200.584 392.200 200.308 393.183 " stroke="none" fill="#fcc444" fill-rule="evenodd"></path></g></svg>